<svg width="180" height="84" viewBox="0 0 180 84" fill="none" xmlns="http://www.w3.org/2000/svg">
<g clip-path="url(#clip0_1_22)">
<path d="M125.29 74.2C122.92 73.92 120.5 72.93 118.73 71.48C117.22 70.26 117.23 70.3 118.12 69.42L118.86 68.69L119.54 69.32C120.89 70.56 122.4 71.38 124.14 71.8C127.41 72.59 130.39 71.92 131.78 70.08C132.33 69.35 132.55 68.63 132.53 67.55C132.52 65.99 131.73 64.86 130.17 64.13C129.76 63.95 128.41 63.52 127.15 63.18C121.99 61.79 120.53 61.11 119.32 59.49C118.08 57.84 117.88 55.42 118.85 53.36C119.54 51.9 121.33 50.49 123.13 49.96C125.8 49.21 129.02 49.58 131.81 50.97C133.09 51.6 133.9 52.19 133.9 52.48C133.9 52.7 132.94 53.95 132.77 53.95C132.71 53.96 132.33 53.75 131.93 53.48C130.95 52.85 129.82 52.35 128.61 52.03C127.2 51.65 124.71 51.65 123.67 52.03C121.59 52.78 120.56 54.04 120.56 55.87C120.55 57.03 120.9 57.83 121.7 58.55C122.62 59.39 123.44 59.71 126.95 60.67C128.16 61.01 129.62 61.45 130.18 61.64C133.27 62.72 134.85 64.68 134.85 67.43C134.84 71.3 131.83 73.98 127.25 74.23C126.66 74.25 125.77 74.24 125.26 74.18L125.29 74.2Z" fill="black"/>
<path d="M21.89 73.52C21.82 73.33 21.47 72.35 21.12 71.33C20.77 70.31 19.99 68.1 19.41 66.42C18.81 64.74 17.45 60.84 16.36 57.74C15.27 54.65 14.22 51.67 14.03 51.12C13.75 50.38 13.69 50.11 13.81 50.07C13.89 50.03 14.43 50.02 15.01 50.05L16.06 50.09L19.06 58.77C20.72 63.55 22.27 68.02 22.48 68.74C22.71 69.45 22.92 70.02 22.96 70.02C23.01 70.02 24.52 65.53 26.32 60.05L29.62 50.09L30.52 50.05L31.42 50.01L34.12 58.18C35.62 62.68 37.1 67.19 37.42 68.21C37.76 69.24 38.04 69.98 38.09 69.89C38.13 69.79 38.8 67.83 39.59 65.52C40.38 63.22 41.56 59.78 42.23 57.86C42.9 55.96 43.77 53.42 44.18 52.23L44.92 50.08L46.09 50.04C46.72 50.03 47.25 50.05 47.25 50.1C47.25 50.15 46.66 51.86 45.95 53.89C43.69 60.32 40.07 70.59 39.5 72.25L38.95 73.84L37.98 73.8L37.02 73.76L33.79 64.1C32.02 58.77 30.52 54.43 30.47 54.43C30.43 54.43 30.33 54.63 30.25 54.88C30.18 55.12 28.74 59.49 27.05 64.57L23.99 73.81H22.98C22 73.81 21.97 73.8 21.85 73.49L21.89 73.52Z" fill="black"/>
<path d="M47.11 73.46C47.22 73.1 48.8 69.53 51.65 63.25C52.15 62.14 52.86 60.57 53.22 59.78C53.57 58.99 54.72 56.46 55.76 54.15L57.65 49.96H58.82H60L61.3 52.89C62.02 54.51 64.38 59.78 66.55 64.63C68.72 69.47 70.49 73.5 70.49 73.57C70.49 73.67 70.13 73.71 69.32 73.71H68.15L67.44 72.07C67.05 71.17 66.42 69.76 66.05 68.93L65.38 67.42L58.74 67.38L52.09 67.36L51.13 69.54C50.6 70.75 49.98 72.16 49.74 72.69L49.32 73.65L48.17 73.69C47.01 73.73 47.01 73.73 47.1 73.45L47.11 73.46ZM64.3 65.29C64.36 65.23 63.87 64.09 61.39 58.47C60.86 57.29 60.11 55.55 59.7 54.62C59.2 53.44 58.91 52.91 58.78 52.91C58.65 52.91 58.37 53.4 57.92 54.44C54.83 61.39 53.14 65.22 53.14 65.28C53.14 65.36 64.21 65.38 64.29 65.29H64.3Z" fill="black"/>
<path d="M74.8 61.88V50.03H75.94H77.08L77.1 60.84L77.14 71.64L83.94 71.68L90.73 71.7V72.72V73.74H82.77H74.81V61.89L74.8 61.88Z" fill="black"/>
<path d="M95.39 61.88V50.03H96.53H97.67V57.4C97.67 61.46 97.72 64.75 97.77 64.72C97.82 64.71 99.23 63.26 100.91 61.51C102.59 59.77 105.45 56.81 107.27 54.93C109.09 53.05 110.88 51.18 111.26 50.78L111.95 50.03H113.13C114.37 50.03 114.59 50.13 114.35 50.57C114.29 50.68 112.15 52.92 109.59 55.56C105.09 60.2 104.95 60.36 105.11 60.62C105.29 60.92 106.74 62.82 111.55 69.09C113.2 71.24 114.55 73.06 114.55 73.12C114.55 73.19 114.44 73.35 114.31 73.48C114.12 73.67 113.92 73.72 113.24 73.72H112.41L111.94 73.16C111.68 72.84 110.85 71.78 110.11 70.79C109.36 69.81 108.42 68.59 108.02 68.09C107.63 67.59 106.42 66.01 105.33 64.58L103.36 61.99L100.52 64.89L97.68 67.8L97.67 70.77V73.73H96.53H95.39V61.88Z" fill="black"/>
<path d="M83.07 42.71C80.52 42.41 78.21 41.32 76.31 39.5C71.59 34.98 71.42 26.83 75.93 21.81C77.26 20.34 79.56 18.96 81.63 18.4C82.52 18.16 82.92 18.12 84.8 18.12C86.67 18.12 87.09 18.16 87.97 18.4C89.65 18.84 91.84 20 92.63 20.85L92.92 21.16L92.29 21.89C91.95 22.28 91.62 22.61 91.56 22.61C91.5 22.61 91.13 22.37 90.72 22.07C89.79 21.39 88.72 20.87 87.54 20.55C86.77 20.33 86.26 20.29 84.75 20.29C82.92 20.28 82.88 20.29 81.67 20.71C80.14 21.25 79.32 21.73 78.21 22.77C76.12 24.71 75.05 27.32 75.05 30.45C75.05 33.44 76.08 36.06 77.97 37.95C81.24 41.19 87.09 41.54 91.12 38.73L91.8 38.25V35.1V31.94H88.04C83.76 31.94 84.14 32.06 84.14 30.73C84.14 29.98 84.16 29.9 84.42 29.84C84.56 29.8 86.74 29.79 89.27 29.8C93.65 29.84 93.87 29.85 94.03 30.06C94.16 30.25 94.2 31.04 94.2 34.32V38.34L93.86 38.88C93.39 39.6 92.51 40.4 91.5 41C88.99 42.48 86.19 43.05 83.07 42.69V42.71Z" fill="black"/>
<path d="M105.03 42.55C102.61 42.05 100.17 40.8 98.75 39.34L98.22 38.8L98.85 38.13C99.2 37.76 99.57 37.46 99.69 37.46C99.8 37.46 100.01 37.6 100.18 37.77C100.62 38.25 101.81 39.06 102.79 39.55C105.32 40.81 108.89 40.99 111.06 39.94C111.8 39.58 112.7 38.72 113.07 37.99C113.36 37.46 113.39 37.26 113.39 36.19C113.39 35.12 113.35 34.93 113.07 34.38C112.89 34.04 112.54 33.59 112.29 33.37C111.46 32.64 110.89 32.44 105.64 30.98C103.67 30.43 102.7 30.05 101.75 29.46C100.05 28.38 99.09 26.66 99.09 24.64C99.09 21.66 101.23 19.18 104.54 18.34C105.64 18.05 108.36 18.05 109.57 18.33C111.47 18.76 113.85 19.89 114.62 20.71L114.88 20.99L114.34 21.71C114.04 22.1 113.75 22.44 113.71 22.46C113.66 22.47 113.33 22.29 112.97 22.05C111.23 20.88 109.55 20.33 107.42 20.24C105.8 20.17 104.79 20.35 103.76 20.87C100.98 22.27 100.56 25.78 102.97 27.43C103.76 27.97 105.02 28.44 107.63 29.12C110.23 29.81 111.42 30.2 112.33 30.64C114.6 31.77 115.74 33.55 115.74 35.99C115.74 37.92 115.23 39.19 113.9 40.49C112.95 41.44 112.04 41.96 110.72 42.36C109.56 42.7 106.33 42.79 105.05 42.53L105.03 42.55Z" fill="black"/>
<path d="M22.02 42.1C21.96 41.94 21.47 40.59 20.93 39.07C20.4 37.56 19.57 35.19 19.06 33.8C18.57 32.42 17.77 30.16 17.28 28.77C16.8 27.38 15.82 24.59 15.1 22.55C14.37 20.5 13.81 18.8 13.84 18.74C13.94 18.58 15.99 18.64 16.11 18.81C16.18 18.88 16.8 20.59 17.5 22.6C18.19 24.61 19.31 27.82 19.98 29.72C20.65 31.63 21.61 34.4 22.1 35.86C22.59 37.33 23.05 38.49 23.09 38.43C23.14 38.38 23.25 38.12 23.33 37.86C23.4 37.6 24.86 33.14 26.57 27.96L29.68 18.53H30.57H31.46L34.44 27.53C36.09 32.48 37.55 36.95 37.7 37.44C37.86 37.93 38.01 38.39 38.06 38.43C38.11 38.48 38.59 37.22 39.14 35.62C40.15 32.66 40.83 30.7 44.8 19.34L45.04 18.65H46.15C47.1 18.65 47.28 18.69 47.28 18.84C47.28 18.95 47 19.79 46.67 20.71C46.35 21.64 45.25 24.78 44.23 27.68C43.21 30.59 41.63 35.06 40.72 37.63L39.06 42.3H38.07H37.08L35.24 36.79C34.22 33.76 32.79 29.43 32.03 27.16C31.29 24.89 30.63 23.04 30.58 23.05C30.51 23.06 25.95 36.73 24.46 41.37L24.15 42.35H23.14C22.22 42.35 22.13 42.33 22.03 42.09L22.02 42.1Z" fill="black"/>
<path d="M68.95 42.26L68.18 42.19L67.59 40.87C67.28 40.15 66.62 38.68 66.15 37.6L65.29 35.66L58.79 35.68L52.29 35.72L51.93 36.5C51.74 36.93 51.1 38.38 50.52 39.73L49.44 42.18L48.29 42.22C47.51 42.24 47.14 42.21 47.14 42.12C47.14 41.99 50.06 35.38 53.94 26.74C55.12 24.11 56.44 21.17 56.86 20.22L57.64 18.48L58.84 18.44L60.04 18.4L60.22 18.85C60.33 19.1 61.46 21.67 62.77 24.57C68.36 37.06 70.61 42.14 70.56 42.19C70.46 42.29 69.69 42.31 68.94 42.24L68.95 42.26ZM64.27 33.54C64.27 33.42 63.41 31.45 60.81 25.56C59.88 23.45 59.06 21.61 59 21.45C58.94 21.31 58.84 21.19 58.78 21.19C58.73 21.19 58.46 21.72 58.19 22.36C57.91 22.99 56.69 25.78 55.47 28.54C54.25 31.29 53.24 33.57 53.24 33.59C53.24 33.61 55.72 33.64 58.75 33.64C61.78 33.64 64.26 33.59 64.26 33.54H64.27Z" fill="black"/>
<path d="M144.53 74.67L144.22 74.43V69.85C144.22 65.51 144.21 65.18 143.93 63.72C143.55 61.71 143.22 58.85 143.32 58.39C143.42 58 143.69 57.8 144.19 57.8C144.67 57.8 144.82 58.02 145.45 59.54C145.75 60.27 146.23 61.38 146.53 62.01C147.01 63.05 147.09 63.17 147.45 63.23C148.06 63.36 160.73 63.33 160.73 63.21C160.73 63.15 160.47 62.86 160.16 62.58C159.84 62.3 157.11 59.78 154.08 56.98C151.06 54.19 146.11 49.61 143.08 46.82C140.05 44.02 137.01 41.21 136.33 40.56C135.65 39.91 135.01 39.39 134.92 39.39C134.82 39.39 134.14 39.96 133.41 40.66C132.67 41.37 131.91 42.01 131.71 42.1C131.52 42.2 131.09 42.44 130.75 42.63C130.43 42.82 130.04 42.98 129.91 42.98C129.77 42.99 129.59 43.06 129.52 43.15C129.27 43.39 126.04 43.41 125.02 43.19C122.1 42.51 120.04 40.01 120.04 37.11C120.04 36.01 120.23 35.21 120.75 34.08C121.43 32.62 122.46 31.54 124.45 30.2C124.86 29.92 125.19 29.67 125.19 29.65C125.19 29.61 124.97 29.31 124.71 28.97C124 28.04 123.17 26.3 122.97 25.34C122.36 22.43 123.52 19.89 125.99 18.72C126.89 18.3 126.96 18.29 128.3 18.28C129.63 18.28 129.71 18.29 130.51 18.69C133.92 20.38 134.4 24.7 131.49 27.61C130.88 28.21 129.11 29.58 128.61 29.84C128.42 29.94 128.24 30.08 128.22 30.15C128.2 30.23 129.61 31.67 131.37 33.36L134.57 36.44L134.93 35.87C136.74 32.99 137.96 28.65 138.09 24.64C138.32 17.84 135.31 13.05 129.65 11.19C127.29 10.4 131.61 10.46 74.75 10.46C46.36 10.46 22.89 10.42 22.59 10.39C21.62 10.26 21.27 9.65 21.85 9.09L22.14 8.79H74.84H127.54L128.8 9.08C133.96 10.25 137.87 13.88 139.27 18.79C140 21.33 140.17 24.42 139.75 27.29C139.5 29.1 138.77 31.97 138.21 33.44C137.74 34.66 136.73 36.74 136.34 37.28C136.21 37.47 136.1 37.67 136.1 37.73C136.1 37.91 137.98 39.66 152.48 53.07C160.21 60.21 162.61 62.41 162.7 62.41C162.75 62.41 162.78 60.79 162.78 58.82C162.78 55.39 162.79 55.22 163.02 54.99C163.31 54.7 163.77 54.68 164.03 54.93C164.13 55.03 164.48 55.65 164.83 56.31C165.17 56.96 165.56 57.6 165.7 57.72C165.84 57.85 167.27 58.64 168.88 59.48C170.5 60.32 171.97 61.16 172.17 61.35C172.47 61.65 172.52 61.78 172.52 62.32C172.51 62.71 172.41 63.15 172.26 63.45C171.96 64.05 171.16 64.79 170.72 64.87C170.53 64.92 170.29 64.99 170.18 65.06C170.06 65.12 168.77 65.17 167.3 65.17C164.86 65.17 164.61 65.19 164.43 65.39C164.25 65.59 164.23 66.07 164.23 69.75C164.23 73.75 164.22 73.89 163.98 74.2C163.7 74.56 163.53 74.58 163.03 74.33C162.77 74.2 162.49 73.74 161.79 72.32C161.3 71.31 160.72 70.26 160.52 69.99L160.16 69.49H154.67C151.12 69.49 149.14 69.54 149.09 69.61C149.05 69.68 148.78 69.84 148.5 69.97C147.67 70.34 147.3 70.94 146.45 73.17C146.16 73.92 145.83 74.65 145.72 74.77C145.46 75.07 144.94 75.06 144.55 74.75L144.53 74.67ZM128.6 41.29C129.94 40.94 131.14 40.24 132.42 38.99L133.51 37.95L130.1 34.6C127.98 32.52 126.59 31.25 126.45 31.25C126.09 31.24 124.27 32.49 123.54 33.25C123.18 33.63 122.73 34.29 122.46 34.82C122.03 35.68 122.02 35.77 122.02 36.99C122.02 38.17 122.04 38.29 122.41 39.05C123.4 41.08 125.89 41.98 128.6 41.3V41.29ZM127.63 28.17C129.17 27.25 130.56 25.97 131.03 25.06C131.77 23.6 131.58 21.97 130.55 20.95C129.94 20.35 129.37 20.1 128.58 20.1C127.53 20.1 127.04 20.22 126.37 20.63C124.57 21.71 124.2 24.27 125.5 26.64C125.94 27.45 126.73 28.6 126.85 28.6C126.9 28.6 127.26 28.41 127.64 28.17H127.63Z" fill="#05A5C3"/>
</g>
<defs>
<clipPath id="clip0_1_22">
<rect width="180" height="84" fill="white"/>
</clipPath>
</defs>
</svg>
